<?xml version="1.0" standalone="no"?>
<!DOCTYPE svg PUBLIC "-//W3C//DTD SVG 20010904//EN"
 "http://www.w3.org/TR/2001/REC-SVG-20010904/DTD/svg10.dtd">
<svg version="1.0" xmlns="http://www.w3.org/2000/svg"
 width="635.000000pt" height="635.000000pt" viewBox="0 0 635.000000 635.000000"
 preserveAspectRatio="xMidYMid meet">
<metadata>
Created by potrace 1.11, written by Peter Selinger 2001-2013
</metadata>
<g transform="translate(0.000000,635.000000) scale(0.100000,-0.100000)"
fill="#000000" stroke="none">
<path d="M0 5480 l0 -870 51 20 c100 40 184 93 379 240 95 72 309 200 334 200
4 0 -19 -30 -51 -67 -136 -158 -223 -285 -223 -325 0 -16 18 -58 40 -96 23
-37 43 -77 46 -89 8 -30 -12 -62 -34 -56 -11 2 -35 -2 -54 -10 -60 -25 -278
-196 -385 -303 -83 -82 -103 -107 -103 -130 l0 -29 32 40 c89 109 144 158 388
349 44 34 105 66 126 66 7 0 -38 -69 -56 -85 -11 -10 -20 -21 -20 -26 0 -6
-28 -57 -112 -204 -61 -106 -170 -334 -201 -420 -45 -124 -45 -124 -105 -132
l-52 -6 0 -235 c0 -129 2 -233 4 -231 15 17 95 264 131 408 24 97 55 206 69
244 32 82 112 244 166 332 22 36 61 107 86 158 25 50 54 101 64 112 10 11 31
45 48 75 l31 54 25 -55 c13 -31 31 -59 40 -62 17 -7 60 37 142 148 31 42 58
75 60 73 2 -3 -1 -19 -6 -37 -33 -115 -112 -673 -130 -916 -16 -230 -9 -527
19 -737 9 -68 15 -66 -110 -42 -108 20 -222 57 -311 100 -40 18 -86 34 -103
34 -16 0 -67 9 -113 20 -46 11 -90 20 -98 20 -12 0 -14 -158 -14 -1155 l0
-1154 25 -57 c14 -32 24 -58 23 -59 -2 -1 -13 -8 -25 -14 l-23 -12 0 -279 0
-280 855 0 856 0 -6 33 c-3 17 -10 64 -15 102 -6 39 -21 120 -35 180 -14 61
-39 180 -56 265 -68 343 -203 834 -284 1035 -5 11 23 -10 61 -46 67 -64 207
-177 311 -252 48 -35 53 -42 63 -95 10 -50 39 -167 121 -492 12 -47 32 -123
45 -170 13 -47 30 -130 38 -185 8 -55 22 -152 31 -215 20 -144 24 -160 39
-160 9 0 10 19 5 72 -13 130 -14 128 26 128 19 0 79 -18 132 -40 54 -22 103
-40 110 -40 16 0 33 -32 33 -64 0 -54 4 -56 117 -56 l106 0 -6 35 c-3 19 -4
35 -2 35 2 0 40 -16 85 -35 l82 -35 211 0 212 0 -129 64 c-71 36 -132 68 -137
73 -9 9 -110 355 -105 360 3 3 232 -89 361 -146 39 -16 69 -35 68 -40 -4 -15
79 -90 227 -206 l135 -105 165 1 165 0 -320 161 c-271 136 -545 261 -759 344
-27 11 -53 26 -58 34 -13 24 -364 1068 -418 1245 -114 377 -187 688 -250 1060
-45 268 -90 597 -90 658 0 39 17 68 172 300 160 241 176 261 242 310 39 28
130 97 201 153 165 128 235 178 241 172 2 -3 -94 -200 -214 -439 -196 -391
-224 -452 -279 -619 -64 -193 -88 -279 -79 -288 3 -3 8 1 10 9 91 277 163 439
251 558 36 49 233 279 374 437 20 22 42 50 50 61 7 11 21 19 30 18 9 -1 10 0
4 2 -7 3 -13 6 -13 8 0 2 23 35 51 72 59 78 225 355 295 491 26 51 49 90 51
88 21 -20 -180 -489 -277 -646 -5 -8 -35 -56 -65 -107 -33 -53 -74 -107 -100
-127 -37 -31 -51 -36 -94 -36 -28 0 -51 -4 -51 -10 0 -13 63 -13 131 1 30 5
66 12 81 14 69 9 250 82 374 149 l136 74 76 -24 c43 -14 98 -29 124 -34 88
-17 354 -131 472 -200 l88 -52 -6 -52 c-22 -164 -180 -836 -261 -1100 -24 -82
-48 -165 -51 -184 -11 -58 12 -28 31 40 21 76 61 157 80 164 8 3 17 14 20 25
8 25 124 115 231 179 46 29 137 71 202 94 194 71 250 107 421 272 l120 115
-21 -73 c-60 -212 -160 -451 -261 -620 -25 -43 -42 -80 -37 -83 8 -5 68 68 98
120 10 16 11 12 5 -25 -13 -77 -9 -390 5 -460 27 -131 33 -157 68 -268 22 -70
33 -120 29 -135 -4 -12 -25 -53 -47 -90 -45 -77 -45 -101 0 -35 47 69 72 125
72 161 0 37 -28 126 -61 195 -12 23 -25 73 -30 110 -5 37 -14 105 -20 152 -12
91 -6 320 11 404 7 35 33 83 88 165 100 148 138 217 203 370 l54 124 140 -7
c161 -7 203 -14 337 -57 63 -20 99 -37 102 -47 12 -39 66 -344 76 -422 5 -46
10 -162 10 -256 0 -168 0 -172 -27 -220 -56 -100 -119 -311 -143 -481 -21
-157 -50 -481 -50 -572 0 -111 -17 -185 -61 -274 -109 -215 -380 -526 -627
-720 -134 -106 -250 -180 -432 -275 l-135 -72 446 0 446 0 13 63 c6 34 28 109
47 167 39 118 183 425 193 413 4 -5 28 -91 54 -193 45 -178 76 -349 76 -417 0
-30 3 -33 30 -33 24 0 30 4 30 23 1 22 1 22 15 -3 17 -30 18 -22 4 33 -8 34
-4 98 20 317 40 363 49 476 61 785 10 239 23 392 35 404 3 2 5 -34 5 -80 0
-253 71 -665 165 -960 47 -146 195 -519 206 -519 13 0 15 -7 -57 172 -192 472
-282 873 -300 1343 -6 147 -5 153 30 304 20 85 36 161 36 168 0 7 20 59 44
116 51 121 144 400 180 543 99 391 122 881 62 1324 -56 420 -96 600 -188 850
-53 145 -92 215 -230 419 -146 217 -218 301 -372 441 -324 292 -509 416 -870
581 l-196 89 -1372 0 -1372 0 -145 -66 c-80 -36 -193 -93 -249 -126 -91 -52
-106 -57 -122 -46 -185 134 -206 147 -346 203 l-87 35 -348 0 -349 0 0 -870z
m3581 840 c305 -24 681 -104 959 -205 180 -66 697 -311 798 -379 30 -20 57
-36 61 -36 16 0 287 -287 322 -340 20 -30 77 -116 126 -190 49 -74 102 -157
117 -185 29 -50 29 -50 -65 40 -290 279 -643 485 -1138 664 -395 143 -726 198
-1246 208 -503 9 -764 -30 -1116 -170 -90 -36 -165 -64 -167 -62 -1 1 11 41
27 89 35 102 119 265 204 393 l60 92 106 25 c138 33 219 46 333 56 142 11 468
11 619 0z m-2362 -711 c-58 -106 -126 -258 -183 -411 l-52 -137 -69 30 c-85
36 -100 36 -159 3 -25 -14 -46 -22 -46 -17 0 15 133 214 197 293 33 42 91 103
129 137 81 72 206 172 216 173 3 0 -11 -32 -33 -71z m-309 -536 c36 -15 66
-28 68 -29 2 -1 -6 -33 -16 -71 -11 -37 -35 -131 -53 -208 -32 -138 -33 -141
-96 -224 -87 -116 -132 -163 -147 -158 -7 3 -30 45 -49 94 -20 48 -43 99 -51
113 -50 84 -51 86 -30 132 38 86 265 376 294 378 8 0 44 -12 80 -27z m3446
-260 c-12 -359 -27 -589 -47 -748 -11 -88 -22 -168 -25 -177 -4 -15 -25 -7
-142 51 -151 76 -330 143 -494 187 -60 16 -108 31 -108 35 0 3 27 23 61 44
101 62 256 192 399 335 149 148 250 276 308 387 20 40 41 73 46 73 5 0 6 -77
2 -187z m-2503 170 c-7 -2 -21 -2 -30 0 -10 3 -4 5 12 5 17 0 24 -2 18 -5z
m340 0 c-13 -2 -35 -2 -50 0 -16 2 -5 4 22 4 28 0 40 -2 28 -4z m1114 -183
c14 -8 6 -9 -37 -4 -79 9 -110 26 -38 20 31 -2 65 -9 75 -16z m488 -160 c4 -6
-5 -10 -20 -10 -15 0 -24 4 -20 10 3 6 12 10 20 10 8 0 17 -4 20 -10z m1755
-182 c17 -117 63 -339 194 -933 39 -176 42 -200 24 -192 -155 68 -227 85 -405
94 -73 3 -133 8 -133 11 0 2 29 84 64 181 74 203 90 257 145 476 55 220 81
364 81 442 0 37 3 64 6 60 3 -3 14 -65 24 -139z m-734 -139 c3 -5 -7 -4 -23 3
-41 17 -53 30 -15 17 18 -6 35 -15 38 -20z m1142 -496 c5 -18 -20 -16 -44 2
-18 15 -18 15 10 13 16 -2 31 -9 34 -15z m132 -67 c0 -11 -19 -15 -25 -6 -3 5
1 10 9 10 9 0 16 -2 16 -4z m-4329 -313 c64 -315 194 -1061 224 -1286 37 -278
41 -302 125 -782 106 -603 120 -688 117 -691 -1 -1 -74 12 -161 29 -133 27
-160 35 -166 52 -12 33 -146 598 -184 775 -97 455 -105 558 -77 1005 24 376
54 728 76 877 8 54 15 103 15 110 0 31 14 -10 31 -89z m289 -488 c34 -218 105
-567 156 -768 71 -278 156 -553 348 -1121 97 -286 174 -521 172 -524 -3 -2
-47 10 -98 26 -51 17 -125 40 -163 51 l-70 21 -123 372 c-145 444 -145 442
-176 633 -85 509 -134 989 -157 1538 l-12 288 24 25 23 25 27 -213 c15 -117
37 -276 49 -353z m-1744 -35 c23 -10 44 -22 47 -26 2 -5 -19 -70 -49 -144 -61
-156 -217 -764 -259 -1014 -14 -82 -27 -151 -29 -153 -5 -5 3 184 15 347 19
268 62 531 136 832 l46 188 26 -6 c14 -4 45 -14 67 -24z m418 -125 c22 -4 35
-10 30 -13 -5 -4 -9 -197 -9 -472 0 -256 -6 -634 -13 -840 -15 -427 -2 -775
33 -936 4 -20 3 -20 -178 8 -100 16 -192 31 -204 34 -21 4 -21 8 -22 166 -3
551 69 1228 199 1872 22 110 40 200 40 202 0 1 19 -2 43 -7 23 -4 60 -11 81
-14z m-595 -1602 l31 -132 -36 -128 c-20 -70 -39 -134 -43 -141 -14 -25 -51
214 -58 369 -5 125 -2 180 12 275 l18 119 23 -115 c12 -63 36 -174 53 -247z
m2178 -385 l53 -150 -38 7 c-20 3 -42 12 -49 18 -6 7 -21 71 -32 143 -26 160
-26 157 -3 143 10 -6 39 -73 69 -161z m-1339 -69 c-3 -8 -7 -3 -11 10 -4 17
-3 21 5 13 5 -5 8 -16 6 -23z m1218 -72 l49 -12 17 -90 c10 -49 16 -97 15
-104 -3 -19 -60 38 -150 148 l-69 84 44 -7 c25 -4 67 -12 94 -19z m215 -143
c15 -49 30 -104 34 -122 l7 -33 -44 22 c-58 28 -87 73 -104 161 -8 40 -14 76
-14 79 0 4 21 1 48 -5 l47 -12 26 -90z m124 56 c146 -42 214 -70 219 -89 26
-83 96 -334 94 -336 -2 -2 -81 38 -177 89 l-174 91 -38 130 c-41 139 -42 145
-33 145 3 0 53 -14 109 -30z m-1548 -222 c-3 -8 -6 -5 -6 6 -1 11 2 17 5 13 3
-3 4 -12 1 -19z m2555 -215 c-13 -5 -96 40 -107 58 -4 6 22 -4 57 -22 34 -18
57 -34 50 -36z m-2485 -85 c-3 -8 -6 -5 -6 6 -1 11 2 17 5 13 3 -3 4 -12 1
-19z"/>
<path d="M297 4626 c-114 -60 -145 -81 -136 -90 5 -5 231 105 253 123 17 14
22 32 9 30 -5 0 -61 -29 -126 -63z"/>
<path d="M3043 4183 c9 -2 23 -2 30 0 6 3 -1 5 -18 5 -16 0 -22 -2 -12 -5z"/>
<path d="M3715 3521 c17 -4 71 -27 120 -51 67 -33 106 -60 153 -108 35 -35 65
-62 68 -60 2 3 -29 37 -70 77 -57 54 -95 81 -159 111 -47 22 -98 40 -113 39
l-29 -1 30 -7z"/>
<path d="M3300 3478 c-91 -13 -284 -79 -373 -127 -41 -23 -105 -67 -143 -99
-38 -32 -100 -79 -138 -105 l-68 -47 55 0 c31 0 68 5 83 10 15 6 28 9 30 7 2
-1 8 -36 15 -77 30 -201 78 -325 162 -425 63 -76 87 -99 64 -65 -80 119 -105
186 -114 302 -12 157 64 293 196 350 l60 26 -41 -51 c-54 -69 -84 -136 -108
-243 -24 -109 -25 -183 -4 -255 21 -71 65 -157 100 -194 15 -16 28 -32 28 -35
0 -20 193 -116 298 -148 69 -22 233 -38 241 -25 3 4 -23 9 -57 9 -56 2 -253
57 -293 82 -8 5 10 13 46 20 67 14 160 70 208 125 90 103 127 221 128 407 0
122 -1 127 -32 189 -37 73 -53 93 -105 131 -24 18 -34 31 -28 39 6 11 22 10
83 -2 100 -20 233 -83 273 -129 41 -47 75 -136 81 -215 4 -44 10 -63 19 -63 8
0 14 8 14 18 0 10 7 19 15 19 8 0 15 -9 15 -19 0 -10 6 -18 14 -18 17 0 46 91
46 144 0 38 -34 152 -52 174 -18 21 -2 25 31 7 47 -24 37 -3 -16 35 -27 18
-71 55 -98 80 -46 42 -184 120 -214 120 -6 0 -11 4 -11 9 0 5 -24 14 -52 19
-188 35 -237 38 -358 20z m8 -314 c6 -59 -83 -127 -102 -78 -7 18 15 73 39 97
27 28 59 18 63 -19z m-132 -169 c10 -26 -5 -65 -25 -65 -24 0 -33 23 -21 55
11 28 37 33 46 10z m48 -250 c5 -25 15 -39 37 -50 39 -21 61 -13 103 36 l34
40 61 -57 c56 -52 61 -60 56 -88 -4 -17 -15 -43 -25 -57 -10 -15 -16 -35 -14
-46 7 -27 -19 -48 -36 -28 -11 13 -14 12 -29 -4 -17 -19 -75 -37 -130 -40 -72
-3 -156 61 -217 164 l-28 48 51 47 c42 38 86 63 124 69 4 1 10 -15 13 -34z
m-164 -20 c-7 -9 -15 -13 -18 -10 -3 2 1 11 8 20 7 9 15 13 18 10 3 -2 -1 -11
-8 -20z"/>
<path d="M5160 2971 c-51 -16 -87 -41 -134 -91 -26 -28 -45 -54 -42 -57 3 -3
26 17 50 44 60 66 127 96 207 91 33 -2 59 0 59 5 0 4 -10 7 -22 7 -13 0 -39 2
-58 5 -19 2 -46 1 -60 -4z"/>
<path d="M5225 2899 c-16 -6 -59 -13 -95 -18 -63 -7 -64 -8 -36 -20 16 -6 25
-15 20 -20 -5 -4 -22 -18 -39 -30 -38 -29 -168 -205 -154 -210 6 -1 18 4 28
13 17 16 17 14 0 -36 -47 -142 -46 -409 2 -538 25 -68 105 -161 148 -173 32
-8 35 10 4 28 l-28 16 30 -5 c76 -11 174 25 248 93 42 39 102 147 128 231 32
105 34 274 3 341 -30 65 -75 111 -139 144 -62 31 -58 48 10 38 98 -13 197 -89
240 -185 23 -51 29 -81 33 -160 6 -122 -8 -197 -57 -303 -29 -63 -35 -82 -23
-82 8 0 20 13 26 29 6 15 14 28 18 28 4 0 4 -7 1 -17 -16 -42 16 2 42 59 17
35 33 65 38 66 4 2 7 8 7 13 0 6 16 44 35 85 19 41 35 79 35 84 0 13 6 13 30
-2 24 -16 50 3 33 24 -6 7 -23 47 -38 88 -43 117 -113 240 -169 295 -105 104
-273 158 -381 124z m-27 -315 c3 -24 -53 -87 -72 -81 -23 7 -18 56 9 82 29 30
59 29 63 -1z m-110 -137 c4 -30 -21 -48 -40 -29 -8 8 -8 18 0 38 15 31 36 27
40 -9z m45 -274 c30 -33 51 -28 91 19 34 39 37 41 62 28 14 -8 28 -26 31 -41
3 -15 13 -29 24 -32 25 -7 24 -24 -1 -37 -11 -6 -20 -15 -20 -20 0 -6 -10 -26
-22 -45 -30 -45 -104 -85 -156 -85 -75 0 -157 87 -177 186 -5 25 -1 37 19 58
16 18 31 26 43 22 10 -3 29 1 43 9 23 13 26 12 34 -13 5 -15 18 -37 29 -49z"/>
<path d="M4115 1020 c-4 -6 37 -10 117 -10 198 0 297 -26 380 -99 20 -17 39
-27 42 -22 9 14 -61 71 -120 98 -29 13 -79 28 -111 33 -77 13 -300 13 -308 0z"/>
</g>
</svg>
